<?xml version="1.0" encoding="UTF-8" standalone="no"?>
<!-- Created with Inkscape (http://www.inkscape.org/) -->

<svg
   xmlns:dc="http://purl.org/dc/elements/1.1/"
   xmlns:cc="http://creativecommons.org/ns#"
   xmlns:rdf="http://www.w3.org/1999/02/22-rdf-syntax-ns#"
   xmlns:svg="http://www.w3.org/2000/svg"
   xmlns="http://www.w3.org/2000/svg"
   xmlns:sodipodi="http://sodipodi.sourceforge.net/DTD/sodipodi-0.dtd"
   xmlns:inkscape="http://www.inkscape.org/namespaces/inkscape"
   width="420"
   height="600"
   viewBox="0 0 111.125 158.75001"
   version="1.1"
   id="svg8"
   inkscape:version="0.92pre3 r"
   sodipodi:docname="Logo vertical black.svg"
   inkscape:export-filename="/home/anxhelo/Desktop/Logo vertical black.png"
   inkscape:export-xdpi="96.099998"
   inkscape:export-ydpi="96.099998">
  <defs
     id="defs2" />
  <sodipodi:namedview
     id="base"
     pagecolor="#ffffff"
     bordercolor="#666666"
     borderopacity="1.0"
     inkscape:pageopacity="0.0"
     inkscape:pageshadow="2"
     inkscape:zoom="0.54"
     inkscape:cx="-304.5341"
     inkscape:cy="153.40826"
     inkscape:document-units="px"
     inkscape:current-layer="layer1"
     showgrid="false"
     units="px"
     borderlayer="true"
     inkscape:showpageshadow="false"
     objecttolerance="14"
     guidetolerance="10"
     inkscape:window-width="1366"
     inkscape:window-height="716"
     inkscape:window-x="0"
     inkscape:window-y="0"
     inkscape:window-maximized="1"
     width="500px" />
  <metadata
     id="metadata5">
    <rdf:RDF>
      <cc:Work
         rdf:about="">
        <dc:format>image/svg+xml</dc:format>
        <dc:type
           rdf:resource="http://purl.org/dc/dcmitype/StillImage" />
        <dc:title></dc:title>
        <cc:license
           rdf:resource="http://creativecommons.org/licenses/by-sa/4.0/" />
      </cc:Work>
      <cc:License
         rdf:about="http://creativecommons.org/licenses/by-sa/4.0/">
        <cc:permits
           rdf:resource="http://creativecommons.org/ns#Reproduction" />
        <cc:permits
           rdf:resource="http://creativecommons.org/ns#Distribution" />
        <cc:requires
           rdf:resource="http://creativecommons.org/ns#Notice" />
        <cc:requires
           rdf:resource="http://creativecommons.org/ns#Attribution" />
        <cc:permits
           rdf:resource="http://creativecommons.org/ns#DerivativeWorks" />
        <cc:requires
           rdf:resource="http://creativecommons.org/ns#ShareAlike" />
      </cc:License>
    </rdf:RDF>
  </metadata>
  <g
     inkscape:label="Layer 1"
     inkscape:groupmode="layer"
     id="layer1"
     transform="translate(0,-138.24999)">
    <g
       id="g7187"
       transform="matrix(1.391889,0,0,1.391889,-100.19922,-41.450996)"
       style="fill:#000000;fill-opacity:1">
      <path
         style="fill:#000000;stroke-width:1.21156955;fill-opacity:1"
         inkscape:connector-curvature="0"
         d="m 97.194649,220.21894 c -0.615477,0.38528 -1.423594,0.58034 -2.402542,0.58034 -0.978948,0 -1.787065,-0.19506 -2.402542,-0.58034 -0.604573,-0.3768 -1.081932,-0.86264 -1.417537,-1.44419 -0.323489,-0.55732 -0.547629,-1.1825 -0.665151,-1.85855 -0.111465,-0.6385 -0.167197,-1.27821 -0.167197,-1.89853 v -9.56776 h -3.908524 v 9.56776 c 0,1.73618 0.201121,3.20703 0.598516,4.36892 0.39376,1.15947 0.901408,2.13236 1.505981,2.88959 0.603361,0.7536 1.258821,1.33515 1.95305,1.73134 0.716038,0.40951 1.399363,0.7124 2.028167,0.90141 0.630017,0.189 1.178858,0.29804 1.635619,0.32227 0.480994,0.0266 0.760866,0.04 0.839618,0.04 0.07754,0 0.357413,-0.0133 0.839618,-0.04 0.454338,-0.0242 1.004391,-0.13327 1.634407,-0.32227 0.631228,-0.1878 1.313341,-0.49069 2.030591,-0.90141 0.693017,-0.39619 1.350897,-0.97774 1.951837,-1.73012 0.60579,-0.75724 1.11343,-1.72891 1.50841,-2.8896 0.39739,-1.1631 0.5973,-2.63274 0.5973,-4.36892 v -9.56776 h -3.907313 v 9.56776 c 0,0.61306 -0.05573,1.25276 -0.168408,1.89853 -0.117522,0.67363 -0.340451,1.2988 -0.665152,1.85855 -0.338028,0.57913 -0.814174,1.06497 -1.418748,1.44298 z"
         id="path4495-2" />
      <path
         style="fill:#000000;stroke-width:1.21156955;fill-opacity:1"
         inkscape:connector-curvature="0"
         d="m 107.64444,207.92635 c -0.52219,0.69908 -0.78752,1.70226 -0.78752,2.98167 v 13.9585 h 3.9485 l 0.0145,-13.39512 c 0.0981,-0.39375 0.27988,-0.75722 0.53915,-1.0795 0.23989,-0.27503 0.54036,-0.50886 0.9317,-0.72816 0.41193,-0.23019 0.93533,-0.3465 1.55565,-0.3465 h 3.28336 v -3.86733 h -5.13706 c -0.92079,0.0969 -1.8016,0.37316 -2.5661,0.8178 -0.63608,0.36832 -1.2358,0.92564 -1.78222,1.65864 z"
         id="path4497-2" />
      <path
         style="fill:#000000;stroke-width:1.21156955;fill-opacity:1"
         inkscape:connector-curvature="0"
         d="m 135.60868,207.62346 c -0.70877,-0.859 -1.62714,-1.52779 -2.72846,-1.99182 -1.11343,-0.46888 -2.49826,-0.70634 -4.11449,-0.70634 -1.69741,0.0521 -3.23489,0.43858 -4.55429,1.14856 -0.55248,0.30168 -1.11101,0.70029 -1.65864,1.18371 -0.53309,0.4713 -1.01408,1.07345 -1.42723,1.78827 -0.4192,0.72452 -0.76208,1.59564 -1.0165,2.59034 -0.25686,1.00197 -0.38649,2.19415 -0.38649,3.54142 0,1.35211 0.12236,2.54429 0.36831,3.54626 0.24232,1.00076 0.56459,1.86703 0.95835,2.57459 0.38892,0.70392 0.83114,1.29274 1.31456,1.75193 0.49068,0.46524 1.00681,0.85536 1.53505,1.15704 1.19946,0.67485 2.60488,1.03348 4.16901,1.06134 0.77056,-0.0521 1.59443,-0.12964 2.29714,-0.32107 0.59367,-0.16961 1.22126,-0.45312 1.85855,-0.83961 0.25079,-0.15145 0.49311,-0.34651 0.74269,-0.59488 l 0.88808,-0.8893 0.0472,2.24262 h 3.78737 v -9.64894 c 0,-1.63804 -0.17083,-3.11979 -0.50765,-4.40406 -0.32954,-1.24912 -0.85779,-2.32379 -1.57261,-3.19006 z m -1.87309,9.56655 c -0.11631,0.75481 -0.35984,1.46843 -0.7221,2.12146 -0.37316,0.67242 -0.90262,1.23944 -1.5714,1.6853 -0.68454,0.45676 -1.58595,0.68938 -2.67636,0.68938 -1.0892,0 -1.99061,-0.23262 -2.67636,-0.68938 -0.67121,-0.44828 -1.19461,-1.01772 -1.55444,-1.69257 -0.34893,-0.65424 -0.58398,-1.36422 -0.69786,-2.11419 -0.11147,-0.71967 -0.1672,-1.39572 -0.1672,-2.00999 0,-0.61305 0.0557,-1.29032 0.1672,-2.0112 0.11388,-0.74875 0.34893,-1.45873 0.69786,-2.11419 0.35983,-0.67485 0.88323,-1.24429 1.55444,-1.69257 0.68575,-0.45676 1.58716,-0.68817 2.67636,-0.68817 1.12918,0 2.05361,0.19749 2.74663,0.58882 0.69907,0.39498 1.23216,0.92928 1.58715,1.59079 0.33561,0.63002 0.55733,1.33758 0.65789,2.1045 0.0969,0.733 0.14538,1.48054 0.14538,2.22202 -0.001,0.61305 -0.0569,1.28911 -0.16719,2.00999 z"
         id="path4499-6" />
      <path
         style="fill:#000000;stroke-width:1.21156955;fill-opacity:1"
         inkscape:connector-curvature="0"
         d="m 97.899783,194.30468 8.514907,-24.12357 c -7.609865,1.02378 -14.40677,4.16902 -19.536555,8.7015 1.590791,6.43101 5.607144,11.91699 11.021648,15.42207 z"
         id="path4507-1" />
      <path
         style="fill:#000000;stroke-width:1.21156955;fill-opacity:1"
         inkscape:connector-curvature="0"
         d="m 125.77679,194.30468 c 5.41329,-3.50508 9.42964,-8.99106 11.02165,-15.42207 -5.12979,-4.53248 -11.92669,-7.67651 -19.53656,-8.7015 z"
         id="path4509-0" />
      <path
         style="fill:#000000;stroke-width:1.21156955;fill-opacity:1"
         inkscape:connector-curvature="0"
         d="m 137.52053,173.92365 c 0.0182,-0.40345 0.0315,-0.80933 0.0315,-1.21641 0,-14.179 -11.53414,-25.71314 -25.71435,-25.71314 -14.177788,0 -25.713142,11.53414 -25.713142,25.71314 0,0.4083 0.01333,0.81296 0.0315,1.21641 7.113125,-5.42419 16.139322,-8.39012 25.681642,-8.39012 9.54232,-0.001 18.56851,2.96471 25.68285,8.39012 z"
         id="path4511-6" />
    </g>
  </g>
</svg>
