<?xml version="1.0" encoding="UTF-8" standalone="no"?>
<!-- Created with Inkscape (http://www.inkscape.org/) -->

<svg
   xmlns:dc="http://purl.org/dc/elements/1.1/"
   xmlns:cc="http://creativecommons.org/ns#"
   xmlns:rdf="http://www.w3.org/1999/02/22-rdf-syntax-ns#"
   xmlns:svg="http://www.w3.org/2000/svg"
   xmlns="http://www.w3.org/2000/svg"
   xmlns:sodipodi="http://sodipodi.sourceforge.net/DTD/sodipodi-0.dtd"
   xmlns:inkscape="http://www.inkscape.org/namespaces/inkscape"
   width="846.6142"
   height="1197.3542"
   viewBox="0 0 210 297"
   version="1.1"
   id="svg8"
   inkscape:version="0.92+devel unknown"
   sodipodi:docname="page_1.svg">
  <defs
     id="defs2" />
  <sodipodi:namedview
     id="base"
     pagecolor="#ffffff"
     bordercolor="#666666"
     borderopacity="1.0"
     inkscape:pageopacity="0.0"
     inkscape:pageshadow="2"
     inkscape:zoom="0.44809906"
     inkscape:cx="474.3151"
     inkscape:cy="393.51628"
     inkscape:document-units="px"
     inkscape:current-layer="layer1"
     showgrid="false"
     units="px"
     borderlayer="true"
     inkscape:showpageshadow="false"
     objecttolerance="14"
     guidetolerance="10"
     inkscape:window-width="1366"
     inkscape:window-height="715"
     inkscape:window-x="0"
     inkscape:window-y="25"
     inkscape:window-maximized="1"
     showguides="true"
     inkscape:guide-bbox="true"
     inkscape:measure-start="100.406,1015.92"
     inkscape:measure-end="121.305,1015.92"
     inkscape:document-rotation="0">
    <sodipodi:guide
       position="16.237574,224.66899"
       orientation="1,0"
       id="guide4632"
       inkscape:locked="false" />
    <sodipodi:guide
       position="44.874751,225.8499"
       orientation="0,1"
       id="guide4668"
       inkscape:locked="false" />
    <sodipodi:guide
       position="52.763626,173.99993"
       orientation="0,1"
       id="guide4670"
       inkscape:locked="false" />
    <sodipodi:guide
       position="163.9995,165.18041"
       orientation="0,1"
       id="guide4672"
       inkscape:locked="false" />
    <sodipodi:guide
       position="158.98061,161.9329"
       orientation="0,1"
       id="guide4674"
       inkscape:locked="false" />
    <sodipodi:guide
       position="25.537276,256.62748"
       orientation="0,1"
       id="guide4676"
       inkscape:locked="false" />
    <sodipodi:guide
       position="33.088169,280.62317"
       orientation="0,1"
       id="guide4678"
       inkscape:locked="false" />
    <sodipodi:guide
       position="46.761829,48.745031"
       orientation="0,1"
       id="guide4680"
       inkscape:locked="false" />
    <sodipodi:guide
       position="49.684443,34.549476"
       orientation="0,1"
       id="guide4682"
       inkscape:locked="false" />
    <sodipodi:guide
       position="191.53561,51.876404"
       orientation="1,0"
       id="guide7091"
       inkscape:locked="false" />
  </sodipodi:namedview>
  <metadata
     id="metadata5">
    <rdf:RDF>
      <cc:Work
         rdf:about="">
        <dc:format>image/svg+xml</dc:format>
        <dc:type
           rdf:resource="http://purl.org/dc/dcmitype/StillImage" />
        <dc:title></dc:title>
        <cc:license
           rdf:resource="http://creativecommons.org/licenses/by-sa/4.0/" />
      </cc:Work>
      <cc:License
         rdf:about="http://creativecommons.org/licenses/by-sa/4.0/">
        <cc:permits
           rdf:resource="http://creativecommons.org/ns#Reproduction" />
        <cc:permits
           rdf:resource="http://creativecommons.org/ns#Distribution" />
        <cc:requires
           rdf:resource="http://creativecommons.org/ns#Notice" />
        <cc:requires
           rdf:resource="http://creativecommons.org/ns#Attribution" />
        <cc:permits
           rdf:resource="http://creativecommons.org/ns#DerivativeWorks" />
        <cc:requires
           rdf:resource="http://creativecommons.org/ns#ShareAlike" />
      </cc:License>
    </rdf:RDF>
  </metadata>
  <g
     inkscape:groupmode="layer"
     id="layer2"
     inkscape:label="Background"
     sodipodi:insensitive="true">
    <rect
       style="opacity:1;fill:#3399d4;fill-opacity:1;stroke:none;stroke-width:0.07836434;stroke-miterlimit:4;stroke-dasharray:none;stroke-opacity:1"
       id="rect4608"
       width="210.00903"
       height="238.50392"
       x="-0.04332516"
       y="58.471081" />
  </g>
  <g
     inkscape:label="Layer 1"
     inkscape:groupmode="layer"
     id="layer1"
     transform="translate(0,3.2282764e-6)">
    <path
       id="path4469-3"
       d="m 22.224834,40.502955 4.340817,-12.299483 c -3.880098,0.522419 -7.344726,2.125669 -9.960941,4.436452 0.812425,3.279522 2.859941,6.075701 5.620124,7.863031 z"
       inkscape:connector-curvature="0"
       style="fill:#3399d4;stroke-width:1.02838504" />
    <path
       id="path4471-6"
       d="m 36.437117,40.502955 c 2.760187,-1.78733 4.8077,-4.583509 5.619095,-7.863031 -2.615182,-2.310783 -6.08084,-3.914033 -9.960937,-4.436452 z"
       inkscape:connector-curvature="0"
       style="fill:#3399d4;stroke-width:1.02838504" />
    <path
       id="path4473-7"
       d="m 42.425404,30.112152 c 0.0093,-0.205689 0.01555,-0.412382 0.01555,-0.620113 -3e-6,-7.228521 -5.881337,-13.109855 -13.109859,-13.109855 -7.228517,0 -13.109851,5.881334 -13.109851,13.109855 0,0.20775 0.0062,0.414439 0.01633,0.620113 3.627116,-2.765325 8.229137,-4.278079 13.093398,-4.278079 4.865291,0 9.467312,1.511724 13.094429,4.278079 z"
       inkscape:connector-curvature="0"
       style="fill:#3399d4;stroke-width:1.02838504" />
    <path
       id="path4483-5"
       d="m 58.626583,34.500275 c -0.527561,0.330107 -1.220695,0.497737 -2.058828,0.497737 -0.839162,0 -1.532293,-0.167638 -2.058827,-0.497737 C 53.990622,34.177359 53.581325,33.760864 53.293379,33.262097 53.015705,32.784925 52.823405,32.24811 52.72365,31.669131 52.628,31.121001 52.579683,30.572872 52.579683,30.042225 v -8.201371 h -3.349451 v 8.201371 c 0,1.489099 0.171758,2.748872 0.513164,3.745376 0.337297,0.994448 0.772317,1.827442 1.291653,2.476353 0.517276,0.645824 1.079802,1.144591 1.674208,1.48396 0.613945,0.351718 1.199097,0.610859 1.739002,0.772317 0.539901,0.162469 1.009874,0.256063 1.401688,0.276625 0.412383,0.02254 0.651997,0.03381 0.718842,0.03381 0.06685,0 0.305426,-0.01127 0.718839,-0.03381 0.388731,-0.0206 0.860761,-0.114156 1.400662,-0.276625 0.540931,-0.161458 1.125053,-0.420611 1.740027,-0.772317 0.594406,-0.339357 1.157963,-0.838136 1.672153,-1.48293 0.519336,-0.648915 0.954344,-1.481905 1.292683,-2.477383 0.340406,-0.996504 0.512133,-2.257303 0.512133,-3.745376 v -8.201371 h -3.34945 v 8.201371 c 0,0.525504 -0.04831,1.073634 -0.143968,1.626906 -0.100784,0.576923 -0.292054,1.113738 -0.569724,1.592966 -0.289995,0.498767 -0.698273,0.914236 -1.215549,1.238178 z"
       inkscape:connector-curvature="0"
       style="fill:#3399d4;stroke-width:1.02838504" />
    <path
       id="path4485-3"
       d="m 67.582787,23.964467 c -0.447348,0.599548 -0.674621,1.45928 -0.674621,2.556565 v 11.964234 h 3.384416 l 0.01244,-11.48192 c 0.08434,-0.337297 0.239622,-0.648911 0.461746,-0.925546 0.20569,-0.236513 0.462775,-0.436034 0.799054,-0.62423 0.352728,-0.19745 0.801114,-0.297224 1.332787,-0.297224 H 75.7133 v -3.314485 h -4.402515 c -0.788774,0.08329 -1.544638,0.319807 -2.199717,0.701359 -0.546073,0.314676 -1.060267,0.792886 -1.52818,1.421228 z"
       inkscape:connector-curvature="0"
       style="fill:#3399d4;stroke-width:1.02838504" />
    <path
       id="path4487-5"
       d="m 91.552385,23.705314 c -0.607773,-0.736321 -1.39449,-1.309132 -2.339576,-1.707118 -0.95434,-0.402098 -2.141096,-0.60572 -3.527361,-0.60572 -1.454133,0.04423 -2.772524,0.375349 -3.903749,0.984167 -0.473055,0.258123 -0.952283,0.600575 -1.422257,1.015014 -0.456603,0.404158 -0.868986,0.919378 -1.222748,1.533323 -0.359918,0.621143 -0.653026,1.367752 -0.871041,2.220281 -0.220072,0.858705 -0.331157,1.879891 -0.331157,3.035793 0,1.158992 0.104905,2.181208 0.315726,3.038879 0.20775,0.857675 0.48437,1.600168 0.821679,2.206915 0.333217,0.603664 0.71267,1.107569 1.127109,1.501443 0.420611,0.399012 0.862817,0.733239 1.316334,0.991362 1.028384,0.578983 2.232623,0.885439 3.573638,0.91012 0.661251,-0.04423 1.366723,-0.111085 1.969357,-0.275614 0.509052,-0.146027 1.046897,-0.388727 1.59297,-0.719868 0.214941,-0.130597 0.422667,-0.297185 0.63657,-0.509052 l 0.761006,-0.763062 0.04011,1.922055 h 3.246613 v -8.270276 c 0,-1.403745 -0.146027,-2.673803 -0.435007,-3.7752 -0.282805,-1.070552 -0.736325,-1.990956 -1.348218,-2.733449 z m -1.606337,8.199315 c -0.09973,0.646854 -0.308496,1.258743 -0.619087,1.818187 -0.319846,0.576923 -0.773347,1.062319 -1.346158,1.444879 -0.587207,0.391813 -1.358494,0.590293 -2.294325,0.590293 -0.933775,0 -1.706092,-0.198499 -2.294326,-0.590293 -0.575896,-0.38359 -1.024271,-0.872072 -1.33176,-1.451051 -0.299246,-0.56047 -0.499794,-1.169273 -0.597493,-1.812015 -0.09565,-0.617031 -0.143967,-1.197041 -0.143967,-1.722545 0,-0.525504 0.04831,-1.105514 0.143967,-1.723575 0.09771,-0.641712 0.299246,-1.250515 0.597493,-1.812011 0.308534,-0.577953 0.756894,-1.066436 1.33176,-1.451055 0.587208,-0.391813 1.359525,-0.59029 2.294326,-0.59029 0.967711,0 1.760596,0.169699 2.353972,0.504936 0.598522,0.338347 1.056151,0.796998 1.359525,1.36364 0.287935,0.539902 0.477172,1.145618 0.564586,1.803787 0.08329,0.628342 0.124417,1.269028 0.124417,1.904568 0,0.525504 -0.04831,1.104487 -0.142957,1.722545 z"
       inkscape:connector-curvature="0"
       style="fill:#3399d4;stroke-width:1.02838504" />
    <text
       xml:space="preserve"
       style="font-style:normal;font-variant:normal;font-weight:normal;font-stretch:normal;line-height:0%;font-family:'Open Sans';-inkscape-font-specification:'Open Sans';text-align:end;text-anchor:end;opacity:1;fill:#3399d4;fill-opacity:1;stroke:none;stroke-width:0.28914729;stroke-miterlimit:4;stroke-dasharray:none;stroke-opacity:1"
       x="14.910973"
       y="94.107819"
       id="text4612"><tspan
         sodipodi:role="line"
         id="tspan4610"
         x="14.910973"
         y="94.107819"
         style="font-style:normal;font-variant:normal;font-weight:bold;font-stretch:normal;font-size:30.00231361px;line-height:28.55701637px;font-family:'Open Sans';-inkscape-font-specification:'Open Sans Bold';text-align:start;text-anchor:start;fill:#ffffff;stroke-width:0.28914729">Style </tspan><tspan
         sodipodi:role="line"
         x="14.910973"
         y="122.66483"
         style="font-style:normal;font-variant:normal;font-weight:bold;font-stretch:normal;font-size:30.00231361px;line-height:28.55701637px;font-family:Overpass;-inkscape-font-specification:'Overpass Bold';text-align:start;text-anchor:start;fill:#ffffff;stroke-width:0.28914729"
         id="tspan4614">Guide</tspan></text>
    <rect
       style="opacity:1;fill:#ffffff;fill-opacity:1;stroke:none;stroke-width:0.0780748;stroke-miterlimit:4;stroke-dasharray:none;stroke-opacity:1"
       id="rect4634"
       width="175.29803"
       height="3.1070514"
       x="16.237574"
       y="131.93663" />
    <text
       xml:space="preserve"
       style="font-style:normal;font-variant:normal;font-weight:bold;font-stretch:normal;line-height:0%;font-family:'Open Sans';-inkscape-font-specification:'Open Sans Bold';text-align:start;text-anchor:start;opacity:1;fill:#ffffff;fill-opacity:1;stroke:none;stroke-width:0.06799792;stroke-miterlimit:4;stroke-dasharray:none;stroke-opacity:1"
       x="16.775843"
       y="253.35835"
       id="text4638"><tspan
         sodipodi:role="line"
         id="tspan4636"
         x="16.775843"
         y="253.35835"
         style="font-style:normal;font-variant:normal;font-weight:normal;font-stretch:normal;font-size:7.05555487px;line-height:1.25;font-family:Overpass;-inkscape-font-specification:Overpass;stroke-width:0.06799792">v.1.1 July 2017 </tspan><tspan
         sodipodi:role="line"
         x="16.775843"
         y="262.1778"
         style="font-style:normal;font-variant:normal;font-weight:normal;font-stretch:normal;font-size:7.05555487px;line-height:1.25;font-family:Overpass;-inkscape-font-specification:Overpass;stroke-width:0.06799792"
         id="tspan4640">CC-BY-SA 4.0 Ura Design</tspan></text>
    <g
       id="g4666"
       transform="matrix(1.2863092,0,0,1.2863092,-56.912462,-83.424631)">
      <g
         id="g4687"
         transform="matrix(0.72206173,0,0,0.72206173,48.676327,58.228348)">
        <path
           id="path4507-6"
           d="m 153.65307,309.84179 9.98913,-28.30016 c -8.92741,1.20102 -16.90109,4.89081 -22.91899,10.20799 1.86617,7.54446 6.57793,13.9803 12.92986,18.09217 z"
           inkscape:connector-curvature="0"
           style="fill:#ffffff;stroke-width:1.42133498" />
        <path
           id="path4509-2"
           d="m 186.35658,309.84179 c 6.35053,-4.11187 11.06224,-10.54771 12.92986,-18.09217 -6.0179,-5.31718 -13.99163,-9.00558 -22.919,-10.20799 z"
           inkscape:connector-curvature="0"
           style="fill:#ffffff;stroke-width:1.42133498" />
        <path
           id="path4511-9"
           d="m 200.13355,285.93209 c 0.0215,-0.47327 0.0376,-0.94944 0.0376,-1.42701 -1.1e-4,-16.63389 -13.5312,-30.16498 -30.16649,-30.16498 -16.63249,0 -30.16503,13.53109 -30.16503,30.16498 0,0.47918 0.0161,0.95374 0.0376,1.42701 8.34466,-6.36331 18.93363,-9.84274 30.12808,-9.84274 11.19439,-0.001 21.78336,3.47803 30.12942,9.84274 z"
           inkscape:connector-curvature="0"
           style="fill:#ffffff;stroke-width:1.42133498" />
      </g>
    </g>
  </g>
</svg>
